G04*
G04 #@! TF.GenerationSoftware,Altium Limited,Altium Designer,21.2.1 (34)*
G04*
G04 Layer_Physical_Order=1*
G04 Layer_Color=255*
%FSLAX44Y44*%
%MOMM*%
G71*
G04*
G04 #@! TF.SameCoordinates,7D1833F5-BA34-4ABF-A559-0A2A528DAE64*
G04*
G04*
G04 #@! TF.FilePolarity,Positive*
G04*
G01*
G75*
%ADD38C,0.6350*%
%ADD39C,1.7780*%
%ADD40R,1.7780X1.7780*%
%ADD41R,2.5400X1.7780*%
%ADD42O,2.5400X1.7780*%
%ADD43O,1.6000X2.2000*%
%ADD44C,1.5240*%
%ADD45C,1.6510*%
%ADD46R,1.7780X2.5400*%
%ADD47O,1.7780X2.5400*%
%ADD48O,2.0320X2.5400*%
%ADD49R,2.0320X2.5400*%
%ADD50C,2.0320*%
%ADD51R,2.0320X2.0320*%
%ADD52O,2.5400X4.5720*%
%ADD53O,3.0480X2.0320*%
%ADD54R,1.7780X1.7780*%
%ADD55R,2.5400X4.0640*%
%ADD56R,4.0640X2.5400*%
%ADD57C,1.3970*%
G36*
X1371476Y826894D02*
X388744D01*
Y1240666D01*
X1371476Y1240666D01*
Y826894D01*
D02*
G37*
%LPC*%
G36*
X1135761Y1213175D02*
X574648D01*
X572493Y1212891D01*
X570485Y1212060D01*
X568760Y1210736D01*
X559646Y1201622D01*
X558393Y1201787D01*
X554978Y1201337D01*
X551796Y1200019D01*
X549064Y1197923D01*
X546967Y1195190D01*
X545649Y1192009D01*
X545200Y1188594D01*
Y1182594D01*
X545409Y1181010D01*
X544571Y1180055D01*
X510261D01*
Y1129255D01*
X545821D01*
Y1146329D01*
X553810D01*
X554888Y1146470D01*
X555965Y1146612D01*
X557973Y1147444D01*
X559698Y1148767D01*
X563418Y1152487D01*
X564741Y1154211D01*
X565573Y1156219D01*
X565856Y1158374D01*
Y1171834D01*
X567721Y1173265D01*
X569818Y1175997D01*
X571136Y1179179D01*
X571586Y1182594D01*
Y1188594D01*
X571421Y1189847D01*
X578097Y1196523D01*
X583640D01*
X584202Y1195384D01*
X584053Y1195190D01*
X582735Y1192009D01*
X582286Y1188594D01*
Y1182594D01*
X582735Y1179179D01*
X584053Y1175997D01*
X586150Y1173265D01*
X587153Y1172496D01*
Y1139341D01*
X587295Y1138264D01*
X587436Y1137186D01*
X588268Y1135178D01*
X589591Y1133454D01*
X624235Y1098810D01*
Y1097092D01*
X623232Y1096323D01*
X621135Y1093590D01*
X619818Y1090409D01*
X619368Y1086994D01*
Y1080994D01*
X619818Y1077579D01*
X621135Y1074398D01*
X623232Y1071665D01*
X625964Y1069569D01*
X629146Y1068251D01*
X632561Y1067801D01*
X635975Y1068251D01*
X639157Y1069569D01*
X641889Y1071665D01*
X643986Y1074398D01*
X645304Y1077579D01*
X645754Y1080994D01*
Y1086994D01*
X645304Y1090409D01*
X643986Y1093590D01*
X641889Y1096323D01*
X640887Y1097092D01*
Y1102259D01*
X640603Y1104414D01*
X639771Y1106422D01*
X638448Y1108147D01*
X603805Y1142790D01*
Y1172496D01*
X604808Y1173265D01*
X606904Y1175997D01*
X608222Y1179179D01*
X608672Y1182594D01*
Y1188594D01*
X608222Y1192009D01*
X606904Y1195190D01*
X606756Y1195384D01*
X607318Y1196523D01*
X623759D01*
X624385Y1195253D01*
X623354Y1193910D01*
X622292Y1191346D01*
X621930Y1188594D01*
Y1186864D01*
X632561D01*
X643192D01*
Y1188594D01*
X642830Y1191346D01*
X641767Y1193910D01*
X640737Y1195253D01*
X641363Y1196523D01*
X657806D01*
X658368Y1195384D01*
X658219Y1195190D01*
X656901Y1192009D01*
X656452Y1188594D01*
Y1182594D01*
X656901Y1179179D01*
X658219Y1175997D01*
X660316Y1173265D01*
X663048Y1171169D01*
X666230Y1169851D01*
X669645Y1169401D01*
X673059Y1169851D01*
X676241Y1171169D01*
X678973Y1173265D01*
X681070Y1175997D01*
X682388Y1179179D01*
X682838Y1182594D01*
Y1188594D01*
X682388Y1192009D01*
X681070Y1195190D01*
X680922Y1195384D01*
X681484Y1196523D01*
X697430D01*
X697992Y1195384D01*
X697843Y1195190D01*
X696525Y1192009D01*
X696076Y1188594D01*
Y1182594D01*
X696525Y1179179D01*
X697843Y1175997D01*
X699940Y1173265D01*
X702672Y1171169D01*
X705854Y1169851D01*
X709269Y1169401D01*
X712683Y1169851D01*
X715865Y1171169D01*
X718597Y1173265D01*
X720694Y1175997D01*
X721220Y1177268D01*
X734403D01*
X734930Y1175997D01*
X737026Y1173265D01*
X738029Y1172496D01*
Y1167535D01*
X738170Y1166458D01*
X738312Y1165380D01*
X739144Y1163372D01*
X740467Y1161648D01*
X789234Y1112881D01*
Y1109688D01*
X788685Y1109427D01*
X787964Y1109343D01*
X786786Y1110878D01*
X783067Y1114597D01*
X781342Y1115921D01*
X779334Y1116752D01*
X778257Y1116894D01*
X777179Y1117036D01*
X697230D01*
X695075Y1116752D01*
X693067Y1115921D01*
X691342Y1114597D01*
X682452Y1105707D01*
X681129Y1103983D01*
X680297Y1101975D01*
X680156Y1100898D01*
X680014Y1099820D01*
Y1096868D01*
X678744Y1096499D01*
X676241Y1098419D01*
X673059Y1099737D01*
X669645Y1100187D01*
X666230Y1099737D01*
X663048Y1098419D01*
X660316Y1096323D01*
X658219Y1093590D01*
X656901Y1090409D01*
X656452Y1086994D01*
Y1080994D01*
X656901Y1077579D01*
X658219Y1074398D01*
X660316Y1071665D01*
X661319Y1070896D01*
Y1065524D01*
X651871Y1056076D01*
X597840D01*
X597354Y1057250D01*
X601366Y1061262D01*
X602690Y1062986D01*
X603521Y1064994D01*
X603663Y1066072D01*
X603805Y1067149D01*
Y1070896D01*
X604808Y1071665D01*
X606904Y1074398D01*
X608222Y1077579D01*
X608672Y1080994D01*
Y1086994D01*
X608222Y1090409D01*
X606904Y1093590D01*
X604808Y1096323D01*
X602075Y1098419D01*
X598893Y1099737D01*
X595479Y1100187D01*
X592064Y1099737D01*
X588882Y1098419D01*
X586150Y1096323D01*
X584053Y1093590D01*
X583527Y1092320D01*
X570344D01*
X569818Y1093590D01*
X567721Y1096323D01*
X564989Y1098419D01*
X561807Y1099737D01*
X558393Y1100187D01*
X554978Y1099737D01*
X551796Y1098419D01*
X549064Y1096323D01*
X546967Y1093590D01*
X545649Y1090409D01*
X545200Y1086994D01*
Y1080994D01*
X545649Y1077579D01*
X546967Y1074398D01*
X549064Y1071665D01*
X551796Y1069569D01*
X554978Y1068251D01*
X558393Y1067801D01*
X561807Y1068251D01*
X564989Y1069569D01*
X567721Y1071665D01*
X569818Y1074398D01*
X570344Y1075668D01*
X583527D01*
X584053Y1074398D01*
X586150Y1071665D01*
X586330Y1071527D01*
X586429Y1069875D01*
X582791Y1066236D01*
X571500D01*
X570423Y1066094D01*
X569345Y1065953D01*
X567337Y1065121D01*
X565612Y1063798D01*
X533862Y1032048D01*
X532539Y1030323D01*
X531707Y1028315D01*
X531566Y1027237D01*
X531424Y1026160D01*
Y933450D01*
X531566Y932373D01*
X531707Y931295D01*
X532539Y929287D01*
X533862Y927562D01*
X549103Y912322D01*
X550827Y910999D01*
X552835Y910167D01*
X553913Y910026D01*
X554990Y909884D01*
X572980D01*
X574236Y908247D01*
X574580Y907983D01*
X574172Y906780D01*
X570230D01*
Y901136D01*
X535940D01*
X533785Y900853D01*
X531777Y900021D01*
X530052Y898698D01*
X522331Y890976D01*
X513210D01*
X513113Y891158D01*
X511208Y893478D01*
X509702Y894715D01*
Y895985D01*
X511208Y897222D01*
X513113Y899542D01*
X514528Y902190D01*
X515400Y905062D01*
X515694Y908050D01*
X515400Y911038D01*
X514528Y913910D01*
X513113Y916558D01*
X511208Y918878D01*
X508888Y920783D01*
X506240Y922198D01*
X503683Y922974D01*
X503308Y923835D01*
X503268Y924355D01*
X504954Y926042D01*
X506543Y928793D01*
X507365Y931862D01*
Y935038D01*
X506543Y938107D01*
X504954Y940858D01*
X503268Y942544D01*
X503308Y943065D01*
X503683Y943926D01*
X506240Y944702D01*
X508888Y946117D01*
X511208Y948021D01*
X513113Y950342D01*
X514528Y952990D01*
X515400Y955862D01*
X515694Y958850D01*
X515400Y961838D01*
X514528Y964710D01*
X513113Y967358D01*
X511208Y969678D01*
X509702Y970915D01*
Y972185D01*
X511208Y973421D01*
X513113Y975742D01*
X514528Y978390D01*
X515400Y981262D01*
X515694Y984250D01*
X515400Y987238D01*
X514528Y990110D01*
X513113Y992758D01*
X511208Y995079D01*
X508888Y996983D01*
X506240Y998398D01*
X503368Y999269D01*
X500380Y999564D01*
X490220D01*
X487232Y999269D01*
X484360Y998398D01*
X481712Y996983D01*
X479392Y995079D01*
X477487Y992758D01*
X476072Y990110D01*
X475201Y987238D01*
X474906Y984250D01*
X475201Y981262D01*
X476072Y978390D01*
X477487Y975742D01*
X479392Y973421D01*
X480898Y972185D01*
Y970915D01*
X479392Y969678D01*
X477487Y967358D01*
X476072Y964710D01*
X475201Y961838D01*
X474906Y958850D01*
X475201Y955862D01*
X476072Y952990D01*
X477487Y950342D01*
X479392Y948021D01*
X481712Y946117D01*
X484360Y944702D01*
X486917Y943926D01*
X487292Y943065D01*
X487332Y942544D01*
X485646Y940858D01*
X484057Y938107D01*
X483235Y935038D01*
Y931862D01*
X484057Y928793D01*
X485646Y926042D01*
X487332Y924355D01*
X487292Y923835D01*
X486917Y922974D01*
X484360Y922198D01*
X481712Y920783D01*
X479392Y918878D01*
X477487Y916558D01*
X476072Y913910D01*
X475201Y911038D01*
X474906Y908050D01*
X475201Y905062D01*
X476072Y902190D01*
X477487Y899542D01*
X479392Y897222D01*
X480898Y895985D01*
Y894715D01*
X479392Y893478D01*
X477487Y891158D01*
X476072Y888510D01*
X475201Y885638D01*
X474906Y882650D01*
X475201Y879662D01*
X476072Y876790D01*
X477487Y874142D01*
X479392Y871822D01*
X481712Y869917D01*
X484360Y868502D01*
X487232Y867630D01*
X490220Y867336D01*
X500380D01*
X503368Y867630D01*
X506240Y868502D01*
X508888Y869917D01*
X511208Y871822D01*
X513113Y874142D01*
X513210Y874324D01*
X525780D01*
X526857Y874466D01*
X527935Y874607D01*
X529943Y875439D01*
X531668Y876762D01*
X539389Y884484D01*
X570230D01*
Y878840D01*
X605790D01*
Y906780D01*
X601848D01*
X601440Y907983D01*
X601783Y908247D01*
X603040Y909884D01*
X611231D01*
X612704Y908411D01*
Y880110D01*
X612846Y879033D01*
X612988Y877955D01*
X613819Y875947D01*
X615143Y874222D01*
X622762Y866602D01*
X624487Y865279D01*
X626495Y864447D01*
X627573Y864306D01*
X628650Y864164D01*
X670124D01*
X671202Y864306D01*
X672279Y864447D01*
X674287Y865279D01*
X676012Y866602D01*
X678988Y869578D01*
X680311Y871303D01*
X681143Y873311D01*
X681426Y875466D01*
Y880216D01*
X681678Y880361D01*
X684279Y882962D01*
X685165Y884497D01*
X686435D01*
X687321Y882962D01*
X689922Y880361D01*
X693108Y878522D01*
X696661Y877570D01*
X700339D01*
X703892Y878522D01*
X707078Y880361D01*
X709679Y882962D01*
X711518Y886148D01*
X712470Y889701D01*
Y893379D01*
X711741Y896099D01*
X715156Y899514D01*
X716479Y901239D01*
X717311Y903247D01*
X717595Y905402D01*
Y1070896D01*
X718597Y1071665D01*
X720694Y1074398D01*
X722012Y1077579D01*
X722462Y1080994D01*
Y1086994D01*
X722012Y1090409D01*
X720694Y1093590D01*
X718597Y1096323D01*
X715865Y1098419D01*
X714189Y1099114D01*
X714441Y1100384D01*
X772573D01*
Y1097092D01*
X771570Y1096323D01*
X769473Y1093590D01*
X768156Y1090409D01*
X767706Y1086994D01*
Y1080994D01*
X768156Y1077579D01*
X769473Y1074398D01*
X771570Y1071665D01*
X772573Y1070896D01*
Y916428D01*
X761580Y905435D01*
X761299Y905510D01*
X757621D01*
X754068Y904558D01*
X750882Y902719D01*
X749300Y901137D01*
X748030Y901663D01*
Y905510D01*
X720090D01*
Y877570D01*
X736255D01*
X751667Y862158D01*
X753392Y860834D01*
X755400Y860003D01*
X757555Y859719D01*
X1343025D01*
X1344102Y859861D01*
X1345180Y860003D01*
X1347188Y860834D01*
X1348913Y862158D01*
X1367328Y880573D01*
X1368651Y882297D01*
X1369483Y884305D01*
X1369766Y886460D01*
Y979170D01*
X1369483Y981325D01*
X1368651Y983333D01*
X1367328Y985058D01*
X1141648Y1210736D01*
X1139924Y1212060D01*
X1137916Y1212891D01*
X1136839Y1213033D01*
X1135761Y1213175D01*
D02*
G37*
G36*
X643192Y1184324D02*
X633831D01*
Y1172130D01*
X635312Y1172325D01*
X637876Y1173387D01*
X640078Y1175077D01*
X641767Y1177279D01*
X642830Y1179843D01*
X643192Y1182594D01*
Y1184324D01*
D02*
G37*
G36*
X631291D02*
X621930D01*
Y1182594D01*
X622292Y1179843D01*
X623354Y1177279D01*
X625044Y1175077D01*
X627245Y1173387D01*
X629809Y1172325D01*
X631291Y1172130D01*
Y1184324D01*
D02*
G37*
G36*
X479781Y1177515D02*
X465811D01*
Y1155925D01*
X479781D01*
Y1177515D01*
D02*
G37*
G36*
X463271D02*
X449301D01*
Y1155925D01*
X463271D01*
Y1177515D01*
D02*
G37*
G36*
X479781Y1153385D02*
X465811D01*
Y1131795D01*
X479781D01*
Y1153385D01*
D02*
G37*
G36*
X463271D02*
X449301D01*
Y1131795D01*
X463271D01*
Y1153385D01*
D02*
G37*
G36*
X525501Y1119095D02*
X503911D01*
Y1105125D01*
X525501D01*
Y1119095D01*
D02*
G37*
G36*
X501371D02*
X479781D01*
Y1105125D01*
X501371D01*
Y1119095D01*
D02*
G37*
G36*
X525501Y1102585D02*
X503911D01*
Y1088615D01*
X525501D01*
Y1102585D01*
D02*
G37*
G36*
X501371D02*
X479781D01*
Y1088615D01*
X501371D01*
Y1102585D01*
D02*
G37*
G36*
X747625Y1097458D02*
Y1085264D01*
X756986D01*
Y1086994D01*
X756624Y1089745D01*
X755562Y1092309D01*
X753872Y1094511D01*
X751670Y1096201D01*
X749106Y1097263D01*
X747625Y1097458D01*
D02*
G37*
G36*
X745085Y1097458D02*
X743603Y1097263D01*
X741039Y1096201D01*
X738838Y1094511D01*
X737148Y1092309D01*
X736086Y1089745D01*
X735724Y1086994D01*
Y1085264D01*
X745085D01*
Y1097458D01*
D02*
G37*
G36*
Y1082724D02*
X735724D01*
Y1080994D01*
X736086Y1078242D01*
X737148Y1075678D01*
X738838Y1073477D01*
X741039Y1071787D01*
X743603Y1070725D01*
X745085Y1070530D01*
Y1082724D01*
D02*
G37*
G36*
X756986D02*
X747625D01*
Y1070530D01*
X749106Y1070725D01*
X751670Y1071787D01*
X753872Y1073477D01*
X755562Y1075678D01*
X756624Y1078242D01*
X756986Y1080994D01*
Y1082724D01*
D02*
G37*
G36*
X446088Y996315D02*
X442912D01*
X439843Y995493D01*
X437092Y993904D01*
X434846Y991658D01*
X433257Y988907D01*
X432435Y985838D01*
Y982662D01*
X433257Y979593D01*
X434846Y976842D01*
X437092Y974596D01*
X439843Y973007D01*
X442912Y972185D01*
X446088D01*
X449157Y973007D01*
X451908Y974596D01*
X454154Y976842D01*
X455743Y979593D01*
X456565Y982662D01*
Y985838D01*
X455743Y988907D01*
X454154Y991658D01*
X451908Y993904D01*
X449157Y995493D01*
X446088Y996315D01*
D02*
G37*
G36*
X420688D02*
X417512D01*
X414443Y995493D01*
X411692Y993904D01*
X409446Y991658D01*
X407857Y988907D01*
X407035Y985838D01*
Y982662D01*
X407857Y979593D01*
X409446Y976842D01*
X411692Y974596D01*
X414443Y973007D01*
X417512Y972185D01*
X420688D01*
X423757Y973007D01*
X426508Y974596D01*
X428754Y976842D01*
X430343Y979593D01*
X431165Y982662D01*
Y985838D01*
X430343Y988907D01*
X428754Y991658D01*
X426508Y993904D01*
X423757Y995493D01*
X420688Y996315D01*
D02*
G37*
G36*
X445770Y959053D02*
Y934974D01*
X459814D01*
Y943864D01*
X459520Y946852D01*
X458648Y949724D01*
X457233Y952372D01*
X455328Y954693D01*
X453008Y956597D01*
X450360Y958012D01*
X447488Y958884D01*
X445770Y959053D01*
D02*
G37*
G36*
X443230D02*
X441512Y958884D01*
X438640Y958012D01*
X435992Y956597D01*
X433671Y954693D01*
X431767Y952372D01*
X430352Y949724D01*
X429481Y946852D01*
X429186Y943864D01*
Y934974D01*
X443230D01*
Y959053D01*
D02*
G37*
G36*
X459814Y932434D02*
X445770D01*
Y908355D01*
X447488Y908524D01*
X450360Y909396D01*
X453008Y910811D01*
X455328Y912716D01*
X457233Y915036D01*
X458648Y917684D01*
X459520Y920556D01*
X459814Y923544D01*
Y932434D01*
D02*
G37*
G36*
X443230D02*
X429186D01*
Y923544D01*
X429481Y920556D01*
X430352Y917684D01*
X431767Y915036D01*
X433671Y912716D01*
X435992Y910811D01*
X438640Y909396D01*
X441512Y908524D01*
X443230Y908355D01*
Y932434D01*
D02*
G37*
G36*
X446088Y894715D02*
X442912D01*
X439843Y893893D01*
X437092Y892304D01*
X434846Y890058D01*
X433257Y887307D01*
X432435Y884238D01*
Y881062D01*
X433257Y877993D01*
X434846Y875242D01*
X437092Y872996D01*
X439843Y871407D01*
X442912Y870585D01*
X446088D01*
X449157Y871407D01*
X451908Y872996D01*
X454154Y875242D01*
X455743Y877993D01*
X456565Y881062D01*
Y884238D01*
X455743Y887307D01*
X454154Y890058D01*
X451908Y892304D01*
X449157Y893893D01*
X446088Y894715D01*
D02*
G37*
G36*
X420688D02*
X417512D01*
X414443Y893893D01*
X411692Y892304D01*
X409446Y890058D01*
X407857Y887307D01*
X407035Y884238D01*
Y881062D01*
X407857Y877993D01*
X409446Y875242D01*
X411692Y872996D01*
X414443Y871407D01*
X417512Y870585D01*
X420688D01*
X423757Y871407D01*
X426508Y872996D01*
X428754Y875242D01*
X430343Y877993D01*
X431165Y881062D01*
Y884238D01*
X430343Y887307D01*
X428754Y890058D01*
X426508Y892304D01*
X423757Y893893D01*
X420688Y894715D01*
D02*
G37*
%LPD*%
G36*
X1353114Y975721D02*
Y906774D01*
X1351844Y906320D01*
X1350679Y907740D01*
X1348358Y909644D01*
X1348081Y909792D01*
Y911955D01*
X1347939Y913033D01*
X1347798Y914110D01*
X1346966Y916118D01*
X1345643Y917842D01*
X1317798Y945687D01*
X1316073Y947011D01*
X1314065Y947842D01*
X1312988Y947984D01*
X1311910Y948126D01*
X1263650D01*
X1261495Y947842D01*
X1259487Y947011D01*
X1257763Y945687D01*
X1224890Y912815D01*
X1223716Y913301D01*
Y946150D01*
X1223432Y948305D01*
X1222601Y950313D01*
X1221277Y952038D01*
X1084118Y1089197D01*
X1082393Y1090521D01*
X1080385Y1091352D01*
X1079307Y1091494D01*
X1078230Y1091636D01*
X1033254D01*
X1031418Y1093473D01*
X1028522Y1095145D01*
X1025292Y1096010D01*
X1021948D01*
X1018718Y1095145D01*
X1015822Y1093473D01*
X1013457Y1091108D01*
X1011786Y1088212D01*
X1010920Y1084982D01*
Y1081638D01*
X1011786Y1078408D01*
X1013457Y1075512D01*
X1015822Y1073148D01*
X1018718Y1071476D01*
X1021948Y1070610D01*
X1025292D01*
X1028522Y1071476D01*
X1031418Y1073148D01*
X1033254Y1074984D01*
X1074781D01*
X1207064Y942701D01*
Y909741D01*
X1206882Y909644D01*
X1204561Y907740D01*
X1203325Y906233D01*
X1202055D01*
X1200818Y907740D01*
X1198498Y909644D01*
X1195850Y911059D01*
X1192978Y911931D01*
X1189990Y912225D01*
X1187002Y911931D01*
X1184130Y911059D01*
X1181482Y909644D01*
X1180978Y909230D01*
X1179830Y909773D01*
Y912151D01*
X1172916D01*
Y935990D01*
X1172774Y937067D01*
X1172633Y938145D01*
X1171801Y940153D01*
X1170478Y941878D01*
X1068242Y1044112D01*
X1066518Y1045436D01*
X1064510Y1046267D01*
X1063432Y1046409D01*
X1062355Y1046551D01*
X971824D01*
X873196Y1145179D01*
Y1158240D01*
X873054Y1159318D01*
X872913Y1160395D01*
X872081Y1162403D01*
X870758Y1164128D01*
X862698Y1172187D01*
X862769Y1173265D01*
X864865Y1175997D01*
X866183Y1179179D01*
X866633Y1182594D01*
Y1188594D01*
X866183Y1192009D01*
X864865Y1195190D01*
X864717Y1195384D01*
X865279Y1196523D01*
X875727D01*
X876353Y1195253D01*
X875322Y1193910D01*
X874260Y1191346D01*
X873898Y1188594D01*
Y1186864D01*
X884529D01*
X895160D01*
Y1188594D01*
X894798Y1191346D01*
X893735Y1193910D01*
X892705Y1195253D01*
X893331Y1196523D01*
X1132312D01*
X1353114Y975721D01*
D02*
G37*
G36*
X804166Y1195384D02*
X804017Y1195190D01*
X802700Y1192009D01*
X802250Y1188594D01*
Y1182594D01*
X802700Y1179179D01*
X804017Y1175997D01*
X806114Y1173265D01*
X807014Y1172575D01*
Y1156970D01*
X807156Y1155892D01*
X807298Y1154815D01*
X808129Y1152807D01*
X809453Y1151083D01*
X823524Y1137011D01*
Y1095679D01*
X822254Y1095053D01*
X820758Y1096201D01*
X818194Y1097263D01*
X816713Y1097458D01*
Y1083994D01*
Y1070530D01*
X818194Y1070725D01*
X820758Y1071787D01*
X822254Y1072935D01*
X823524Y1072309D01*
Y1064260D01*
X823666Y1063183D01*
X823808Y1062105D01*
X824639Y1060097D01*
X825963Y1058372D01*
X889564Y994771D01*
Y986790D01*
X883920D01*
Y951230D01*
X889564D01*
Y943249D01*
X875492Y929177D01*
X874169Y927453D01*
X873337Y925445D01*
X873196Y924368D01*
X873054Y923290D01*
Y910720D01*
X872872Y910623D01*
X870552Y908718D01*
X869315Y907212D01*
X868045D01*
X866808Y908718D01*
X864488Y910623D01*
X861840Y912038D01*
X858968Y912909D01*
X855980Y913204D01*
X852992Y912909D01*
X850120Y912038D01*
X847472Y910623D01*
X846968Y910209D01*
X845820Y910752D01*
Y913130D01*
X815340D01*
Y899866D01*
X796184D01*
X796039Y900118D01*
X793438Y902719D01*
X790252Y904558D01*
X786937Y905446D01*
X786341Y906646D01*
X786786Y907091D01*
X788110Y908816D01*
X788941Y910824D01*
X789083Y911901D01*
X789225Y912979D01*
Y984632D01*
X789774Y984893D01*
X790495Y984977D01*
X791673Y983443D01*
X798023Y977093D01*
X799747Y975769D01*
X801755Y974938D01*
X803910Y974654D01*
X825500D01*
Y969010D01*
X833878D01*
X834130Y967740D01*
X833706Y967564D01*
X831318Y965732D01*
X829486Y963344D01*
X828334Y960564D01*
X828109Y958850D01*
X843280D01*
X858451D01*
X858226Y960564D01*
X857074Y963344D01*
X855242Y965732D01*
X852854Y967564D01*
X852430Y967740D01*
X852682Y969010D01*
X861060D01*
Y996950D01*
X825500D01*
Y991306D01*
X807359D01*
X805886Y992779D01*
Y1074048D01*
X807156Y1074479D01*
X807926Y1073477D01*
X810127Y1071787D01*
X812691Y1070725D01*
X814173Y1070530D01*
Y1083994D01*
Y1097458D01*
X812691Y1097263D01*
X810127Y1096201D01*
X807926Y1094511D01*
X807156Y1093509D01*
X805886Y1093940D01*
Y1116330D01*
X805602Y1118485D01*
X804771Y1120493D01*
X803447Y1122217D01*
X754681Y1170984D01*
Y1172496D01*
X755684Y1173265D01*
X757780Y1175997D01*
X759098Y1179179D01*
X759548Y1182594D01*
Y1188594D01*
X759098Y1192009D01*
X757780Y1195190D01*
X757632Y1195384D01*
X758194Y1196523D01*
X768321D01*
X769551Y1195292D01*
X769473Y1195190D01*
X768156Y1192009D01*
X767706Y1188594D01*
Y1182594D01*
X768156Y1179179D01*
X769473Y1175997D01*
X771570Y1173265D01*
X774302Y1171169D01*
X777484Y1169851D01*
X780899Y1169401D01*
X784313Y1169851D01*
X787495Y1171169D01*
X790228Y1173265D01*
X792324Y1175997D01*
X793642Y1179179D01*
X794092Y1182594D01*
Y1188594D01*
X793642Y1192009D01*
X792324Y1195190D01*
X792176Y1195384D01*
X792738Y1196523D01*
X803604D01*
X804166Y1195384D01*
D02*
G37*
G36*
X845114Y1132192D02*
Y1097092D01*
X844111Y1096323D01*
X842015Y1093590D01*
X841446Y1092218D01*
X840176Y1092471D01*
Y1135470D01*
X841349Y1135956D01*
X845114Y1132192D01*
D02*
G37*
G36*
X580705Y1048410D02*
X549249Y1016955D01*
X548076Y1017441D01*
Y1022711D01*
X574949Y1049584D01*
X580219D01*
X580705Y1048410D01*
D02*
G37*
G36*
X651825Y1038251D02*
X613771Y1000196D01*
X600500D01*
X599244Y1001833D01*
X596325Y1004073D01*
X592927Y1005480D01*
X589280Y1005960D01*
X581660D01*
X578013Y1005480D01*
X574615Y1004073D01*
X571697Y1001833D01*
X569457Y998915D01*
X568050Y995517D01*
X567570Y991870D01*
X568050Y988223D01*
X569457Y984825D01*
X571697Y981907D01*
X572040Y981643D01*
X571632Y980440D01*
X567690D01*
Y974796D01*
X562249D01*
X560776Y976269D01*
Y1004931D01*
X595269Y1039424D01*
X651339D01*
X651825Y1038251D01*
D02*
G37*
G36*
X976311Y921953D02*
X975472Y920996D01*
X974785Y921523D01*
X971387Y922930D01*
X967740Y923410D01*
X964093Y922930D01*
X960695Y921523D01*
X957776Y919284D01*
X957513Y918940D01*
X956310Y919348D01*
Y923290D01*
X928370D01*
Y915106D01*
X909320D01*
X908242Y914964D01*
X907165Y914822D01*
X905157Y913991D01*
X903432Y912667D01*
X895929Y905164D01*
X894673Y905350D01*
X894113Y906398D01*
X892208Y908718D01*
X889888Y910623D01*
X889706Y910720D01*
Y919841D01*
X903777Y933913D01*
X905101Y935637D01*
X905932Y937645D01*
X906216Y939800D01*
Y951230D01*
X911860D01*
Y955172D01*
X913063Y955580D01*
X913326Y955237D01*
X916245Y952997D01*
X919643Y951590D01*
X923290Y951109D01*
X926937Y951590D01*
X930335Y952997D01*
X933253Y955237D01*
X935493Y958155D01*
X936260Y960008D01*
X938256D01*
X976311Y921953D01*
D02*
G37*
G36*
X552912Y960583D02*
X554637Y959259D01*
X556645Y958428D01*
X558800Y958144D01*
X567690D01*
Y952500D01*
X577144D01*
Y947420D01*
X577286Y946342D01*
X577427Y945265D01*
X578259Y943257D01*
X579582Y941533D01*
X587641Y933474D01*
X587155Y932300D01*
X584200D01*
X580553Y931820D01*
X577155Y930413D01*
X574236Y928174D01*
X572980Y926536D01*
X558439D01*
X548076Y936899D01*
Y963759D01*
X549249Y964245D01*
X552912Y960583D01*
D02*
G37*
G36*
X1330096Y909839D02*
X1330034Y908570D01*
X1329021Y907740D01*
X1327117Y905419D01*
X1326466Y904200D01*
X1324960Y904077D01*
X1323508Y905969D01*
X1320855Y908005D01*
X1317765Y909284D01*
X1315720Y909554D01*
Y894371D01*
X1313180D01*
Y909554D01*
X1311135Y909284D01*
X1308045Y908005D01*
X1305560Y906098D01*
X1304290Y906406D01*
Y912151D01*
X1273810D01*
Y876591D01*
X1272631Y876371D01*
X1221301D01*
X1221112Y877641D01*
X1221250Y877683D01*
X1223898Y879098D01*
X1226218Y881003D01*
X1228123Y883323D01*
X1229538Y885971D01*
X1230409Y888844D01*
X1230704Y891831D01*
Y895272D01*
X1231533Y895908D01*
X1267099Y931474D01*
X1308461D01*
X1330096Y909839D01*
D02*
G37*
G36*
X962487Y1032337D02*
X964212Y1031014D01*
X966220Y1030182D01*
X968375Y1029899D01*
X1058906D01*
X1156264Y932541D01*
Y912151D01*
X1149350D01*
Y902406D01*
X1137356D01*
Y927825D01*
X1137214Y928903D01*
X1137073Y929980D01*
X1136241Y931988D01*
X1134918Y933713D01*
X1122308Y946322D01*
X1120583Y947646D01*
X1118575Y948477D01*
X1117498Y948619D01*
X1116420Y948761D01*
X1089025D01*
X1086870Y948477D01*
X1084862Y947646D01*
X1083138Y946322D01*
X1031601Y894786D01*
X1026226D01*
X1025298Y896175D01*
X1023175Y898298D01*
X1020679Y899966D01*
X1017905Y901114D01*
X1014961Y901700D01*
X1011959D01*
X1009015Y901114D01*
X1006241Y899966D01*
X1003745Y898298D01*
X1001622Y896175D01*
X999955Y893679D01*
X999398Y892337D01*
X979600D01*
X979038Y893475D01*
X979943Y894655D01*
X981350Y898053D01*
X981831Y901700D01*
Y909320D01*
X981350Y912967D01*
X979943Y916365D01*
X979416Y917052D01*
X980373Y917891D01*
X982132Y916133D01*
X983856Y914809D01*
X985864Y913978D01*
X988019Y913694D01*
X998220D01*
Y906780D01*
X1028700D01*
Y937260D01*
X998220D01*
Y930346D01*
X991468D01*
X947592Y974221D01*
X945868Y975545D01*
X943860Y976376D01*
X942783Y976518D01*
X941705Y976660D01*
X936820D01*
X935493Y979865D01*
X933253Y982784D01*
X931616Y984040D01*
Y996950D01*
X931474Y998027D01*
X931332Y999105D01*
X930501Y1001113D01*
X929177Y1002838D01*
X892855Y1039160D01*
Y1070896D01*
X893857Y1071665D01*
X895954Y1074398D01*
X897272Y1077579D01*
X897722Y1080994D01*
Y1086994D01*
X897272Y1090409D01*
X895954Y1093590D01*
X893857Y1096323D01*
X891125Y1098419D01*
X887943Y1099737D01*
X884529Y1100187D01*
X881114Y1099737D01*
X877932Y1098419D01*
X875200Y1096323D01*
X873103Y1093590D01*
X871786Y1090409D01*
X871336Y1086994D01*
Y1080994D01*
X871786Y1077579D01*
X873103Y1074398D01*
X875200Y1071665D01*
X876203Y1070896D01*
Y1035711D01*
X876344Y1034634D01*
X876486Y1033556D01*
X876742Y1032939D01*
X875665Y1032220D01*
X840176Y1067709D01*
Y1075517D01*
X841446Y1075770D01*
X842015Y1074398D01*
X844111Y1071665D01*
X846844Y1069569D01*
X850025Y1068251D01*
X853440Y1067801D01*
X856855Y1068251D01*
X860036Y1069569D01*
X862769Y1071665D01*
X864865Y1074398D01*
X866183Y1077579D01*
X866633Y1080994D01*
Y1086994D01*
X866183Y1090409D01*
X864865Y1093590D01*
X862769Y1096323D01*
X861766Y1097092D01*
Y1131399D01*
X862940Y1131885D01*
X962487Y1032337D01*
D02*
G37*
G36*
X699940Y1071665D02*
X700943Y1070896D01*
Y908851D01*
X697602Y905510D01*
X696661D01*
X693108Y904558D01*
X689922Y902719D01*
X687321Y900118D01*
X686435Y898583D01*
X685165D01*
X684279Y900118D01*
X681678Y902719D01*
X678492Y904558D01*
X674939Y905510D01*
X671261D01*
X667708Y904558D01*
X664522Y902719D01*
X662940Y901137D01*
X661670Y901663D01*
Y905510D01*
X656026D01*
Y906780D01*
X655884Y907858D01*
X655742Y908935D01*
X654911Y910943D01*
X653587Y912667D01*
X625648Y940608D01*
X623923Y941931D01*
X621915Y942763D01*
X620838Y942904D01*
X619760Y943046D01*
X601619D01*
X593796Y950869D01*
Y952500D01*
X603250D01*
Y980440D01*
X599308D01*
X598900Y981643D01*
X599244Y981907D01*
X600500Y983544D01*
X617220D01*
X618298Y983686D01*
X619375Y983828D01*
X621383Y984659D01*
X623107Y985983D01*
X694228Y1057103D01*
X695551Y1058827D01*
X696383Y1060835D01*
X696524Y1061913D01*
X696666Y1062990D01*
Y1074163D01*
X697178Y1074265D01*
X697936Y1074277D01*
X699940Y1071665D01*
D02*
G37*
G36*
X1120704Y924376D02*
Y897800D01*
X1120846Y896722D01*
X1120987Y895645D01*
X1121819Y893637D01*
X1123142Y891912D01*
X1126862Y888193D01*
X1128587Y886869D01*
X1130595Y886038D01*
X1132750Y885754D01*
X1149350D01*
Y876591D01*
X1148171Y876371D01*
X1117600D01*
Y901700D01*
X1110686D01*
Y909254D01*
X1112075Y910182D01*
X1114198Y912305D01*
X1115865Y914801D01*
X1117014Y917575D01*
X1117600Y920519D01*
Y923521D01*
X1117063Y926221D01*
X1118044Y927036D01*
X1120704Y924376D01*
D02*
G37*
G36*
X1087477Y925316D02*
X1087120Y923521D01*
Y920519D01*
X1087706Y917575D01*
X1088855Y914801D01*
X1090522Y912305D01*
X1092645Y910182D01*
X1094034Y909254D01*
Y901700D01*
X1087120D01*
Y876371D01*
X1027497D01*
X1026778Y877641D01*
X1027073Y878134D01*
X1035050D01*
X1036127Y878276D01*
X1037205Y878418D01*
X1039213Y879249D01*
X1040938Y880573D01*
X1086307Y925941D01*
X1087477Y925316D01*
D02*
G37*
G36*
X928370Y887730D02*
X956310D01*
Y891672D01*
X957513Y892080D01*
X957776Y891737D01*
X959414Y890480D01*
Y887730D01*
X959556Y886653D01*
X959697Y885575D01*
X960529Y883567D01*
X961852Y881842D01*
X965572Y878123D01*
X966200Y877641D01*
X966194Y877278D01*
X965769Y876371D01*
X882914D01*
X882852Y877641D01*
X884368Y877791D01*
X887240Y878662D01*
X889888Y880077D01*
X892208Y881982D01*
X894113Y884302D01*
X895528Y886950D01*
X895551Y887024D01*
X897890D01*
X898968Y887166D01*
X900045Y887308D01*
X902053Y888139D01*
X903777Y889463D01*
X912769Y898454D01*
X928370D01*
Y887730D01*
D02*
G37*
%LPC*%
G36*
X895160Y1184324D02*
X885799D01*
Y1172130D01*
X887280Y1172325D01*
X889844Y1173387D01*
X892046Y1175077D01*
X893735Y1177279D01*
X894798Y1179843D01*
X895160Y1182594D01*
Y1184324D01*
D02*
G37*
G36*
X883259D02*
X873898D01*
Y1182594D01*
X874260Y1179843D01*
X875322Y1177279D01*
X877012Y1175077D01*
X879213Y1173387D01*
X881777Y1172325D01*
X883259Y1172130D01*
Y1184324D01*
D02*
G37*
G36*
X1025376Y1172845D02*
X1021864D01*
X1018473Y1171936D01*
X1015432Y1170181D01*
X1012949Y1167698D01*
X1011194Y1164657D01*
X1010285Y1161266D01*
Y1157754D01*
X1011194Y1154363D01*
X1012949Y1151322D01*
X1015432Y1148839D01*
X1018473Y1147084D01*
X1021864Y1146175D01*
X1025376D01*
X1028767Y1147084D01*
X1031808Y1148839D01*
X1034152Y1151184D01*
X1125581D01*
X1137920Y1138845D01*
Y1122680D01*
X1146287D01*
X1146628Y1121410D01*
X1144872Y1120396D01*
X1142744Y1118268D01*
X1141239Y1115662D01*
X1140460Y1112755D01*
Y1112520D01*
X1163320D01*
Y1112755D01*
X1162541Y1115662D01*
X1161036Y1118268D01*
X1158908Y1120396D01*
X1157152Y1121410D01*
X1157493Y1122680D01*
X1165860D01*
Y1150620D01*
X1149695D01*
X1134918Y1165397D01*
X1133193Y1166721D01*
X1131185Y1167552D01*
X1130107Y1167694D01*
X1129030Y1167836D01*
X1034152D01*
X1031808Y1170181D01*
X1028767Y1171936D01*
X1025376Y1172845D01*
D02*
G37*
G36*
X1163320Y1109980D02*
X1153160D01*
Y1099820D01*
X1153395D01*
X1156302Y1100599D01*
X1158908Y1102104D01*
X1161036Y1104232D01*
X1162541Y1106838D01*
X1163320Y1109745D01*
Y1109980D01*
D02*
G37*
G36*
X1150620D02*
X1140460D01*
Y1109745D01*
X1141239Y1106838D01*
X1142744Y1104232D01*
X1144872Y1102104D01*
X1147478Y1100599D01*
X1150385Y1099820D01*
X1150620D01*
Y1109980D01*
D02*
G37*
G36*
X858451Y956310D02*
X844550D01*
Y946051D01*
X847090D01*
X850074Y946444D01*
X852854Y947596D01*
X855242Y949428D01*
X857074Y951816D01*
X858226Y954596D01*
X858451Y956310D01*
D02*
G37*
G36*
X842010D02*
X828109D01*
X828334Y954596D01*
X829486Y951816D01*
X831318Y949428D01*
X833706Y947596D01*
X836486Y946444D01*
X839470Y946051D01*
X842010D01*
Y956310D01*
D02*
G37*
%LPD*%
D38*
X941705Y968334D02*
X988019Y922020D01*
X923966Y968334D02*
X941705D01*
X884529Y1035711D02*
X923290Y996950D01*
X1135761Y1204849D02*
X1361440Y979170D01*
X1343025Y868045D02*
X1361440Y886460D01*
Y979170D01*
X709269Y1185594D02*
X746355D01*
X697230Y1108710D02*
X777179D01*
X746355Y1167535D02*
Y1185594D01*
X688340Y1099820D02*
X697230Y1108710D01*
X669645Y1062075D02*
Y1083994D01*
X667798Y1187440D02*
X669645Y1185594D01*
X688340Y1062990D02*
Y1099820D01*
X591820Y1047750D02*
X655320D01*
X585470Y991870D02*
X617220D01*
X688340Y1062990D01*
X552450Y1008380D02*
X591820Y1047750D01*
X586239Y1057910D02*
X595479Y1067149D01*
X655320Y1047750D02*
X669645Y1062075D01*
X571500Y1057910D02*
X586239D01*
X558800Y966470D02*
X585470D01*
X558393Y1083994D02*
X595479D01*
X709269Y905402D02*
Y1083994D01*
X585470Y947420D02*
Y966470D01*
X554990Y918210D02*
X588010D01*
X574648Y1204849D02*
X663030D01*
X771770D01*
X779052Y1197566D01*
Y1187440D02*
Y1197566D01*
X558393Y1188594D02*
X574648Y1204849D01*
X667798Y1187440D02*
Y1200081D01*
X663030Y1204849D02*
X667798Y1200081D01*
X746355Y1167535D02*
X797560Y1116330D01*
X552450Y972820D02*
Y1008380D01*
X539750Y1026160D02*
X571500Y1057910D01*
X539750Y933450D02*
X554990Y918210D01*
X539750Y933450D02*
Y1026160D01*
X552450Y972820D02*
X558800Y966470D01*
X595479Y1139341D02*
Y1185594D01*
X632561Y1083994D02*
Y1102259D01*
X595479Y1067149D02*
Y1083994D01*
Y1139341D02*
X632561Y1102259D01*
X621030Y880110D02*
Y911860D01*
X614680Y918210D02*
X621030Y911860D01*
X585470Y947420D02*
X598170Y934720D01*
X619760D01*
X647700Y906780D01*
X535940Y892810D02*
X588010D01*
X586740Y891540D02*
X588010Y892810D01*
Y918210D02*
X614680D01*
X557530Y1184731D02*
X558393Y1185594D01*
X528041Y1154655D02*
X553810D01*
X557530Y1158374D01*
Y1184731D01*
X558393Y1185594D02*
Y1188594D01*
X797560Y989330D02*
Y1116330D01*
X780899Y1083994D02*
Y1104990D01*
X777179Y1108710D02*
X780899Y1104990D01*
X779052Y1187440D02*
X780899Y1185594D01*
Y912979D02*
Y1083994D01*
X698500Y894633D02*
X709269Y905402D01*
X698500Y891540D02*
Y894633D01*
X759460Y891540D02*
X780899Y912979D01*
X758749Y892251D02*
X759460Y891540D01*
X673100Y875466D02*
Y891540D01*
X647700D02*
Y906780D01*
X495300Y882650D02*
X525780D01*
X535940Y892810D01*
X1164299Y894080D02*
X1164590Y894371D01*
X1225645Y901795D02*
X1263650Y939800D01*
X1216630Y894371D02*
X1224054Y901795D01*
X1225645D01*
X1215390Y894371D02*
X1216630D01*
X1164590D02*
Y935990D01*
X1132750Y894080D02*
X1164299D01*
X1129030Y897800D02*
X1132750Y894080D01*
X1215390Y894371D02*
Y946150D01*
X1129030Y897800D02*
Y927825D01*
X828421Y1204849D02*
X1135761D01*
X815340Y1156970D02*
Y1185491D01*
X815443Y1185594D01*
X835660Y1153421D02*
Y1197610D01*
X815340Y1156970D02*
X831850Y1140460D01*
X1078230Y1083310D02*
X1215390Y946150D01*
X1062355Y1038225D02*
X1164590Y935990D01*
X1184275Y868045D02*
X1189990Y873760D01*
X844550Y868045D02*
X1184275D01*
X1189990Y873760D02*
Y894371D01*
X864870Y1141730D02*
X968375Y1038225D01*
X853307Y876802D02*
Y892677D01*
X844550Y868045D02*
X853307Y876802D01*
X1035050Y886460D02*
X1089025Y940435D01*
X1116420D02*
X1129030Y927825D01*
X1089025Y940435D02*
X1116420D01*
X988019Y922020D02*
X1013460D01*
X771770Y1204849D02*
X828421D01*
X835660Y1153421D02*
X853440Y1135641D01*
X828421Y1204849D02*
X835660Y1197610D01*
X853440Y1169670D02*
Y1185594D01*
X864870Y1141730D02*
Y1158240D01*
X853440Y1083994D02*
Y1135641D01*
Y1169670D02*
X864870Y1158240D01*
X797560Y989330D02*
X803910Y982980D01*
X843280D01*
X897890Y939800D02*
Y969010D01*
Y998220D01*
X923290Y969010D02*
Y996950D01*
Y969010D02*
X923966Y968334D01*
X1023620Y1159510D02*
X1129030D01*
X1151890Y1136650D01*
X1023620Y1083310D02*
X1078230D01*
X968375Y1038225D02*
X1062355D01*
X1013460Y886460D02*
X1035050D01*
X1102360D02*
Y922020D01*
X1011010Y884010D02*
X1013460Y886460D01*
X881380Y895350D02*
Y923290D01*
X897890Y939800D01*
X881380Y895350D02*
X897890D01*
X826770Y891540D02*
X830580Y895350D01*
X853307Y892677D02*
X855980Y895350D01*
X967740Y887730D02*
Y905510D01*
X909320Y906780D02*
X941070D01*
X942340Y905510D01*
X897890Y895350D02*
X909320Y906780D01*
X967740Y887730D02*
X971460Y884010D01*
X1011010D01*
X784860Y891540D02*
X826770D01*
X628650Y872490D02*
X670124D01*
X673100Y875466D01*
X621030Y880110D02*
X628650Y872490D01*
X831850Y1064260D02*
Y1140460D01*
Y1064260D02*
X897890Y998220D01*
X884529Y1035711D02*
Y1083994D01*
X757555Y868045D02*
X844550D01*
X1339755Y894466D02*
Y911955D01*
Y894466D02*
X1339850Y894371D01*
X734060Y891540D02*
X757555Y868045D01*
X1184275D02*
X1343025D01*
X1263650Y939800D02*
X1311910D01*
X1339755Y911955D01*
D39*
X1151890Y1111250D02*
D03*
X698500Y891540D02*
D03*
X673100D02*
D03*
X784860D02*
D03*
X759460D02*
D03*
D40*
X1151890Y1136650D02*
D03*
D41*
X588010Y892810D02*
D03*
X843280Y982980D02*
D03*
X585470Y966470D02*
D03*
D42*
X588010Y918210D02*
D03*
X843280Y957580D02*
D03*
X585470Y991870D02*
D03*
D43*
X558393Y1185594D02*
D03*
Y1083994D02*
D03*
X746355Y1185594D02*
D03*
Y1083994D02*
D03*
X632561D02*
D03*
Y1185594D02*
D03*
X669645D02*
D03*
Y1083994D02*
D03*
X709269D02*
D03*
Y1185594D02*
D03*
X595479Y1083994D02*
D03*
Y1185594D02*
D03*
X815443D02*
D03*
Y1083994D02*
D03*
X853440Y1185594D02*
D03*
Y1083994D02*
D03*
X884529D02*
D03*
Y1185594D02*
D03*
X780899D02*
D03*
Y1083994D02*
D03*
D44*
X1023620Y1083310D02*
D03*
D45*
Y1159510D02*
D03*
D46*
X897890Y969010D02*
D03*
X942340Y905510D02*
D03*
D47*
X923290Y969010D02*
D03*
X967740Y905510D02*
D03*
D48*
X881380Y895350D02*
D03*
X855980D02*
D03*
X1215390Y894371D02*
D03*
X1189990D02*
D03*
X1339850D02*
D03*
X1314450D02*
D03*
D49*
X830580Y895350D02*
D03*
X1164590Y894371D02*
D03*
X1289050D02*
D03*
D50*
X1013460Y886460D02*
D03*
X1102360Y922020D02*
D03*
D51*
Y886460D02*
D03*
X1013460Y922020D02*
D03*
D52*
X444500Y933704D02*
D03*
D53*
X495300Y882650D02*
D03*
Y908050D02*
D03*
Y958850D02*
D03*
Y984250D02*
D03*
D54*
X647700Y891540D02*
D03*
X734060D02*
D03*
D55*
X528041Y1154655D02*
D03*
X464541D02*
D03*
D56*
X502641Y1103855D02*
D03*
D57*
X444500Y984250D02*
D03*
Y882650D02*
D03*
X495300Y933450D02*
D03*
X419100Y984250D02*
D03*
Y882650D02*
D03*
M02*
